<svg width="512" height="512" viewBox="0 0 512 512" xmlns="http://www.w3.org/2000/svg">
  <defs>
    <linearGradient id="codex-blue" x1="0%" y1="0%" x2="100%" y2="100%">
      <stop offset="0%" stop-color="#4F46E5" />
      <stop offset="100%" stop-color="#0EA5E9" />
    </linearGradient>
    <filter id="soft-shadow" x="-20%" y="-20%" width="140%" height="140%">
      <feDropShadow dx="0" dy="12" stdDeviation="16" flood-color="#000000" flood-opacity="0.15" />
    </filter>
  </defs>
  
  <!-- App Squircle -->
  <rect x="32" y="32" width="448" height="448" rx="100" fill="#FFFFFF" />
  
  <!-- Puffy P shape -->
  <g filter="url(#soft-shadow)">
    <path d="M 180 140 c 0 -11 9 -20 20 -20 h 90 c 65 0 110 45 110 106 c 0 61 -45 106 -110 106 h -50 v 80 c 0 11 -9 20 -20 20 c -11 0 -20 -9 -20 -20 v -272 z" fill="url(#codex-blue)" />
  </g>
  
  <!-- Cutout >_ -->
  <g stroke="#FFFFFF" stroke-width="14" stroke-linecap="round" stroke-linejoin="round" fill="none">
    <path d="M 240 196 l 20 20 l -20 20" />
    <line x1="275" y1="236" x2="305" y2="236" />
  </g>
</svg>